<svg xmlns="http://www.w3.org/2000/svg" height="277" width="251"><g stroke="#f8f7b7"><path d="m54 16c-15-14-30-14-47 1-10 10-9 25 3 45 10 15 20 31 30 47 17 26 8 55-26 88-11 11-9 26 6 45 9 12 24 12 45 2 19-9 39-8 61 3 16 8 33 7 53-1 11-5 23-5 36 0 14 5 25-5 33-30 8-24 0-48-25-72-27-26-21-64 19-112 7-9 2-18-15-29-9-6-20-3-33 12-7 8-17 8-32 0-10-6-22-6-35 1-11 5-24 5-37 1-12-4-24-4-36-1z" fill="#dc9e5c"/><g fill="none"><path d="m45 60c2-7 8-7 18-2 5 3 12 3 19-1 7-3 15-4 24-1 11 3 23 4 35 3 10-1 21-1 32 1h17"/><path d="m51 87c4 4 8 3 11-4 3-8 12-5 25 8 6 6 15 5 26-4 9-7 20-6 33 2 9 5 19 5 31-2"/><path d="m65 119c14 1 14 1 0 0-7-1-1 2 16 9 5 3 11-1 15-10 5-8 15-7 30 5 7 6 16 5 28-2 9-6 20-5 32 3 5 4 9 8 13 13"/><path d="m65 149c3-1 9 0 19 2 3 1 5 0 7-3 4-6 12-5 22 3 6 5 15 4 25-2 8-5 18-1 27 11 7 7 17 7 30-3 4-2 8-2 14 2"/><path d="m45 182c11-8 22-10 32-3 6 4 12 4 20 1 9-4 19-3 30 2 8 5 18 6 29 5 9-1 18-1 27 1 7 1 12-3 15-12 3-7 9-3 19 10"/><path d="m35 218c-2-12 7-16 29-11 8 1 17 17 26 10 17-12 5 20 30-3 8-9 20-7 36 4 12 8 27 9 45 1 7-4 13-7 20-12 5-3 6 3 2 18"/></g></g></svg>